<svg version="1.1" xmlns="http://www.w3.org/2000/svg" width="300px" height="300px" viewBox="0 0 315 315"  preserveAspectRatio="xMinYMin meet"><rect width="100%" height="100%" fill="#ffffff" cx="0" cy="0"/><path d="M9,9l9,0 0,9 -9,0 0,-9z M18,9l9,0 0,9 -9,0 0,-9z M27,9l9,0 0,9 -9,0 0,-9z M36,9l9,0 0,9 -9,0 0,-9z M45,9l9,0 0,9 -9,0 0,-9z M54,9l9,0 0,9 -9,0 0,-9z M63,9l9,0 0,9 -9,0 0,-9z M99,9l9,0 0,9 -9,0 0,-9z M117,9l9,0 0,9 -9,0 0,-9z M126,9l9,0 0,9 -9,0 0,-9z M135,9l9,0 0,9 -9,0 0,-9z M144,9l9,0 0,9 -9,0 0,-9z M162,9l9,0 0,9 -9,0 0,-9z M171,9l9,0 0,9 -9,0 0,-9z M189,9l9,0 0,9 -9,0 0,-9z M198,9l9,0 0,9 -9,0 0,-9z M216,9l9,0 0,9 -9,0 0,-9z M243,9l9,0 0,9 -9,0 0,-9z M252,9l9,0 0,9 -9,0 0,-9z M261,9l9,0 0,9 -9,0 0,-9z M270,9l9,0 0,9 -9,0 0,-9z M279,9l9,0 0,9 -9,0 0,-9z M288,9l9,0 0,9 -9,0 0,-9z M297,9l9,0 0,9 -9,0 0,-9z M9,18l9,0 0,9 -9,0 0,-9z M63,18l9,0 0,9 -9,0 0,-9z M81,18l9,0 0,9 -9,0 0,-9z M99,18l9,0 0,9 -9,0 0,-9z M126,18l9,0 0,9 -9,0 0,-9z M135,18l9,0 0,9 -9,0 0,-9z M144,18l9,0 0,9 -9,0 0,-9z M153,18l9,0 0,9 -9,0 0,-9z M162,18l9,0 0,9 -9,0 0,-9z M171,18l9,0 0,9 -9,0 0,-9z M189,18l9,0 0,9 -9,0 0,-9z M198,18l9,0 0,9 -9,0 0,-9z M207,18l9,0 0,9 -9,0 0,-9z M225,18l9,0 0,9 -9,0 0,-9z M243,18l9,0 0,9 -9,0 0,-9z M297,18l9,0 0,9 -9,0 0,-9z M9,27l9,0 0,9 -9,0 0,-9z M27,27l9,0 0,9 -9,0 0,-9z M36,27l9,0 0,9 -9,0 0,-9z M45,27l9,0 0,9 -9,0 0,-9z M63,27l9,0 0,9 -9,0 0,-9z M117,27l9,0 0,9 -9,0 0,-9z M126,27l9,0 0,9 -9,0 0,-9z M144,27l9,0 0,9 -9,0 0,-9z M180,27l9,0 0,9 -9,0 0,-9z M198,27l9,0 0,9 -9,0 0,-9z M207,27l9,0 0,9 -9,0 0,-9z M243,27l9,0 0,9 -9,0 0,-9z M261,27l9,0 0,9 -9,0 0,-9z M270,27l9,0 0,9 -9,0 0,-9z M279,27l9,0 0,9 -9,0 0,-9z M297,27l9,0 0,9 -9,0 0,-9z M9,36l9,0 0,9 -9,0 0,-9z M27,36l9,0 0,9 -9,0 0,-9z M36,36l9,0 0,9 -9,0 0,-9z M45,36l9,0 0,9 -9,0 0,-9z M63,36l9,0 0,9 -9,0 0,-9z M81,36l9,0 0,9 -9,0 0,-9z M90,36l9,0 0,9 -9,0 0,-9z M99,36l9,0 0,9 -9,0 0,-9z M117,36l9,0 0,9 -9,0 0,-9z M135,36l9,0 0,9 -9,0 0,-9z M144,36l9,0 0,9 -9,0 0,-9z M162,36l9,0 0,9 -9,0 0,-9z M180,36l9,0 0,9 -9,0 0,-9z M207,36l9,0 0,9 -9,0 0,-9z M243,36l9,0 0,9 -9,0 0,-9z M261,36l9,0 0,9 -9,0 0,-9z M270,36l9,0 0,9 -9,0 0,-9z M279,36l9,0 0,9 -9,0 0,-9z M297,36l9,0 0,9 -9,0 0,-9z M9,45l9,0 0,9 -9,0 0,-9z M27,45l9,0 0,9 -9,0 0,-9z M36,45l9,0 0,9 -9,0 0,-9z M45,45l9,0 0,9 -9,0 0,-9z M63,45l9,0 0,9 -9,0 0,-9z M90,45l9,0 0,9 -9,0 0,-9z M144,45l9,0 0,9 -9,0 0,-9z M153,45l9,0 0,9 -9,0 0,-9z M171,45l9,0 0,9 -9,0 0,-9z M180,45l9,0 0,9 -9,0 0,-9z M189,45l9,0 0,9 -9,0 0,-9z M198,45l9,0 0,9 -9,0 0,-9z M207,45l9,0 0,9 -9,0 0,-9z M216,45l9,0 0,9 -9,0 0,-9z M243,45l9,0 0,9 -9,0 0,-9z M261,45l9,0 0,9 -9,0 0,-9z M270,45l9,0 0,9 -9,0 0,-9z M279,45l9,0 0,9 -9,0 0,-9z M297,45l9,0 0,9 -9,0 0,-9z M9,54l9,0 0,9 -9,0 0,-9z M63,54l9,0 0,9 -9,0 0,-9z M81,54l9,0 0,9 -9,0 0,-9z M90,54l9,0 0,9 -9,0 0,-9z M108,54l9,0 0,9 -9,0 0,-9z M117,54l9,0 0,9 -9,0 0,-9z M162,54l9,0 0,9 -9,0 0,-9z M171,54l9,0 0,9 -9,0 0,-9z M189,54l9,0 0,9 -9,0 0,-9z M243,54l9,0 0,9 -9,0 0,-9z M297,54l9,0 0,9 -9,0 0,-9z M9,63l9,0 0,9 -9,0 0,-9z M18,63l9,0 0,9 -9,0 0,-9z M27,63l9,0 0,9 -9,0 0,-9z M36,63l9,0 0,9 -9,0 0,-9z M45,63l9,0 0,9 -9,0 0,-9z M54,63l9,0 0,9 -9,0 0,-9z M63,63l9,0 0,9 -9,0 0,-9z M81,63l9,0 0,9 -9,0 0,-9z M99,63l9,0 0,9 -9,0 0,-9z M117,63l9,0 0,9 -9,0 0,-9z M135,63l9,0 0,9 -9,0 0,-9z M153,63l9,0 0,9 -9,0 0,-9z M171,63l9,0 0,9 -9,0 0,-9z M189,63l9,0 0,9 -9,0 0,-9z M207,63l9,0 0,9 -9,0 0,-9z M225,63l9,0 0,9 -9,0 0,-9z M243,63l9,0 0,9 -9,0 0,-9z M252,63l9,0 0,9 -9,0 0,-9z M261,63l9,0 0,9 -9,0 0,-9z M270,63l9,0 0,9 -9,0 0,-9z M279,63l9,0 0,9 -9,0 0,-9z M288,63l9,0 0,9 -9,0 0,-9z M297,63l9,0 0,9 -9,0 0,-9z M90,72l9,0 0,9 -9,0 0,-9z M99,72l9,0 0,9 -9,0 0,-9z M108,72l9,0 0,9 -9,0 0,-9z M135,72l9,0 0,9 -9,0 0,-9z M153,72l9,0 0,9 -9,0 0,-9z M171,72l9,0 0,9 -9,0 0,-9z M180,72l9,0 0,9 -9,0 0,-9z M189,72l9,0 0,9 -9,0 0,-9z M198,72l9,0 0,9 -9,0 0,-9z M207,72l9,0 0,9 -9,0 0,-9z M216,72l9,0 0,9 -9,0 0,-9z M9,81l9,0 0,9 -9,0 0,-9z M18,81l9,0 0,9 -9,0 0,-9z M27,81l9,0 0,9 -9,0 0,-9z M36,81l9,0 0,9 -9,0 0,-9z M45,81l9,0 0,9 -9,0 0,-9z M63,81l9,0 0,9 -9,0 0,-9z M72,81l9,0 0,9 -9,0 0,-9z M81,81l9,0 0,9 -9,0 0,-9z M90,81l9,0 0,9 -9,0 0,-9z M108,81l9,0 0,9 -9,0 0,-9z M189,81l9,0 0,9 -9,0 0,-9z M216,81l9,0 0,9 -9,0 0,-9z M225,81l9,0 0,9 -9,0 0,-9z M234,81l9,0 0,9 -9,0 0,-9z M252,81l9,0 0,9 -9,0 0,-9z M270,81l9,0 0,9 -9,0 0,-9z M288,81l9,0 0,9 -9,0 0,-9z M18,90l9,0 0,9 -9,0 0,-9z M45,90l9,0 0,9 -9,0 0,-9z M72,90l9,0 0,9 -9,0 0,-9z M99,90l9,0 0,9 -9,0 0,-9z M117,90l9,0 0,9 -9,0 0,-9z M126,90l9,0 0,9 -9,0 0,-9z M135,90l9,0 0,9 -9,0 0,-9z M144,90l9,0 0,9 -9,0 0,-9z M162,90l9,0 0,9 -9,0 0,-9z M171,90l9,0 0,9 -9,0 0,-9z M180,90l9,0 0,9 -9,0 0,-9z M189,90l9,0 0,9 -9,0 0,-9z M216,90l9,0 0,9 -9,0 0,-9z M234,90l9,0 0,9 -9,0 0,-9z M243,90l9,0 0,9 -9,0 0,-9z M279,90l9,0 0,9 -9,0 0,-9z M288,90l9,0 0,9 -9,0 0,-9z M297,90l9,0 0,9 -9,0 0,-9z M54,99l9,0 0,9 -9,0 0,-9z M63,99l9,0 0,9 -9,0 0,-9z M72,99l9,0 0,9 -9,0 0,-9z M81,99l9,0 0,9 -9,0 0,-9z M99,99l9,0 0,9 -9,0 0,-9z M126,99l9,0 0,9 -9,0 0,-9z M135,99l9,0 0,9 -9,0 0,-9z M144,99l9,0 0,9 -9,0 0,-9z M189,99l9,0 0,9 -9,0 0,-9z M207,99l9,0 0,9 -9,0 0,-9z M252,99l9,0 0,9 -9,0 0,-9z M261,99l9,0 0,9 -9,0 0,-9z M270,99l9,0 0,9 -9,0 0,-9z M288,99l9,0 0,9 -9,0 0,-9z M18,108l9,0 0,9 -9,0 0,-9z M36,108l9,0 0,9 -9,0 0,-9z M54,108l9,0 0,9 -9,0 0,-9z M72,108l9,0 0,9 -9,0 0,-9z M81,108l9,0 0,9 -9,0 0,-9z M117,108l9,0 0,9 -9,0 0,-9z M126,108l9,0 0,9 -9,0 0,-9z M144,108l9,0 0,9 -9,0 0,-9z M171,108l9,0 0,9 -9,0 0,-9z M189,108l9,0 0,9 -9,0 0,-9z M198,108l9,0 0,9 -9,0 0,-9z M216,108l9,0 0,9 -9,0 0,-9z M225,108l9,0 0,9 -9,0 0,-9z M234,108l9,0 0,9 -9,0 0,-9z M252,108l9,0 0,9 -9,0 0,-9z M279,108l9,0 0,9 -9,0 0,-9z M9,117l9,0 0,9 -9,0 0,-9z M27,117l9,0 0,9 -9,0 0,-9z M54,117l9,0 0,9 -9,0 0,-9z M63,117l9,0 0,9 -9,0 0,-9z M72,117l9,0 0,9 -9,0 0,-9z M81,117l9,0 0,9 -9,0 0,-9z M90,117l9,0 0,9 -9,0 0,-9z M99,117l9,0 0,9 -9,0 0,-9z M117,117l9,0 0,9 -9,0 0,-9z M135,117l9,0 0,9 -9,0 0,-9z M207,117l9,0 0,9 -9,0 0,-9z M225,117l9,0 0,9 -9,0 0,-9z M234,117l9,0 0,9 -9,0 0,-9z M261,117l9,0 0,9 -9,0 0,-9z M270,117l9,0 0,9 -9,0 0,-9z M9,126l9,0 0,9 -9,0 0,-9z M18,126l9,0 0,9 -9,0 0,-9z M36,126l9,0 0,9 -9,0 0,-9z M54,126l9,0 0,9 -9,0 0,-9z M81,126l9,0 0,9 -9,0 0,-9z M153,126l9,0 0,9 -9,0 0,-9z M171,126l9,0 0,9 -9,0 0,-9z M189,126l9,0 0,9 -9,0 0,-9z M198,126l9,0 0,9 -9,0 0,-9z M216,126l9,0 0,9 -9,0 0,-9z M234,126l9,0 0,9 -9,0 0,-9z M243,126l9,0 0,9 -9,0 0,-9z M288,126l9,0 0,9 -9,0 0,-9z M297,126l9,0 0,9 -9,0 0,-9z M18,135l9,0 0,9 -9,0 0,-9z M27,135l9,0 0,9 -9,0 0,-9z M36,135l9,0 0,9 -9,0 0,-9z M45,135l9,0 0,9 -9,0 0,-9z M63,135l9,0 0,9 -9,0 0,-9z M72,135l9,0 0,9 -9,0 0,-9z M81,135l9,0 0,9 -9,0 0,-9z M108,135l9,0 0,9 -9,0 0,-9z M117,135l9,0 0,9 -9,0 0,-9z M144,135l9,0 0,9 -9,0 0,-9z M171,135l9,0 0,9 -9,0 0,-9z M234,135l9,0 0,9 -9,0 0,-9z M288,135l9,0 0,9 -9,0 0,-9z M54,144l9,0 0,9 -9,0 0,-9z M72,144l9,0 0,9 -9,0 0,-9z M81,144l9,0 0,9 -9,0 0,-9z M90,144l9,0 0,9 -9,0 0,-9z M99,144l9,0 0,9 -9,0 0,-9z M108,144l9,0 0,9 -9,0 0,-9z M135,144l9,0 0,9 -9,0 0,-9z M189,144l9,0 0,9 -9,0 0,-9z M198,144l9,0 0,9 -9,0 0,-9z M207,144l9,0 0,9 -9,0 0,-9z M216,144l9,0 0,9 -9,0 0,-9z M225,144l9,0 0,9 -9,0 0,-9z M234,144l9,0 0,9 -9,0 0,-9z M252,144l9,0 0,9 -9,0 0,-9z M279,144l9,0 0,9 -9,0 0,-9z M27,153l9,0 0,9 -9,0 0,-9z M36,153l9,0 0,9 -9,0 0,-9z M63,153l9,0 0,9 -9,0 0,-9z M99,153l9,0 0,9 -9,0 0,-9z M108,153l9,0 0,9 -9,0 0,-9z M144,153l9,0 0,9 -9,0 0,-9z M153,153l9,0 0,9 -9,0 0,-9z M162,153l9,0 0,9 -9,0 0,-9z M171,153l9,0 0,9 -9,0 0,-9z M189,153l9,0 0,9 -9,0 0,-9z M207,153l9,0 0,9 -9,0 0,-9z M234,153l9,0 0,9 -9,0 0,-9z M252,153l9,0 0,9 -9,0 0,-9z M261,153l9,0 0,9 -9,0 0,-9z M288,153l9,0 0,9 -9,0 0,-9z M45,162l9,0 0,9 -9,0 0,-9z M99,162l9,0 0,9 -9,0 0,-9z M117,162l9,0 0,9 -9,0 0,-9z M126,162l9,0 0,9 -9,0 0,-9z M135,162l9,0 0,9 -9,0 0,-9z M153,162l9,0 0,9 -9,0 0,-9z M180,162l9,0 0,9 -9,0 0,-9z M216,162l9,0 0,9 -9,0 0,-9z M243,162l9,0 0,9 -9,0 0,-9z M270,162l9,0 0,9 -9,0 0,-9z M288,162l9,0 0,9 -9,0 0,-9z M297,162l9,0 0,9 -9,0 0,-9z M36,171l9,0 0,9 -9,0 0,-9z M45,171l9,0 0,9 -9,0 0,-9z M63,171l9,0 0,9 -9,0 0,-9z M72,171l9,0 0,9 -9,0 0,-9z M90,171l9,0 0,9 -9,0 0,-9z M99,171l9,0 0,9 -9,0 0,-9z M126,171l9,0 0,9 -9,0 0,-9z M135,171l9,0 0,9 -9,0 0,-9z M144,171l9,0 0,9 -9,0 0,-9z M153,171l9,0 0,9 -9,0 0,-9z M207,171l9,0 0,9 -9,0 0,-9z M234,171l9,0 0,9 -9,0 0,-9z M252,171l9,0 0,9 -9,0 0,-9z M270,171l9,0 0,9 -9,0 0,-9z M288,171l9,0 0,9 -9,0 0,-9z M18,180l9,0 0,9 -9,0 0,-9z M36,180l9,0 0,9 -9,0 0,-9z M99,180l9,0 0,9 -9,0 0,-9z M117,180l9,0 0,9 -9,0 0,-9z M126,180l9,0 0,9 -9,0 0,-9z M144,180l9,0 0,9 -9,0 0,-9z M180,180l9,0 0,9 -9,0 0,-9z M189,180l9,0 0,9 -9,0 0,-9z M198,180l9,0 0,9 -9,0 0,-9z M207,180l9,0 0,9 -9,0 0,-9z M225,180l9,0 0,9 -9,0 0,-9z M234,180l9,0 0,9 -9,0 0,-9z M252,180l9,0 0,9 -9,0 0,-9z M279,180l9,0 0,9 -9,0 0,-9z M18,189l9,0 0,9 -9,0 0,-9z M27,189l9,0 0,9 -9,0 0,-9z M45,189l9,0 0,9 -9,0 0,-9z M54,189l9,0 0,9 -9,0 0,-9z M63,189l9,0 0,9 -9,0 0,-9z M72,189l9,0 0,9 -9,0 0,-9z M81,189l9,0 0,9 -9,0 0,-9z M90,189l9,0 0,9 -9,0 0,-9z M117,189l9,0 0,9 -9,0 0,-9z M135,189l9,0 0,9 -9,0 0,-9z M144,189l9,0 0,9 -9,0 0,-9z M153,189l9,0 0,9 -9,0 0,-9z M162,189l9,0 0,9 -9,0 0,-9z M171,189l9,0 0,9 -9,0 0,-9z M189,189l9,0 0,9 -9,0 0,-9z M207,189l9,0 0,9 -9,0 0,-9z M225,189l9,0 0,9 -9,0 0,-9z M234,189l9,0 0,9 -9,0 0,-9z M261,189l9,0 0,9 -9,0 0,-9z M288,189l9,0 0,9 -9,0 0,-9z M9,198l9,0 0,9 -9,0 0,-9z M18,198l9,0 0,9 -9,0 0,-9z M27,198l9,0 0,9 -9,0 0,-9z M36,198l9,0 0,9 -9,0 0,-9z M54,198l9,0 0,9 -9,0 0,-9z M81,198l9,0 0,9 -9,0 0,-9z M90,198l9,0 0,9 -9,0 0,-9z M99,198l9,0 0,9 -9,0 0,-9z M144,198l9,0 0,9 -9,0 0,-9z M153,198l9,0 0,9 -9,0 0,-9z M180,198l9,0 0,9 -9,0 0,-9z M189,198l9,0 0,9 -9,0 0,-9z M216,198l9,0 0,9 -9,0 0,-9z M243,198l9,0 0,9 -9,0 0,-9z M270,198l9,0 0,9 -9,0 0,-9z M288,198l9,0 0,9 -9,0 0,-9z M297,198l9,0 0,9 -9,0 0,-9z M9,207l9,0 0,9 -9,0 0,-9z M27,207l9,0 0,9 -9,0 0,-9z M63,207l9,0 0,9 -9,0 0,-9z M72,207l9,0 0,9 -9,0 0,-9z M108,207l9,0 0,9 -9,0 0,-9z M117,207l9,0 0,9 -9,0 0,-9z M144,207l9,0 0,9 -9,0 0,-9z M153,207l9,0 0,9 -9,0 0,-9z M198,207l9,0 0,9 -9,0 0,-9z M207,207l9,0 0,9 -9,0 0,-9z M234,207l9,0 0,9 -9,0 0,-9z M252,207l9,0 0,9 -9,0 0,-9z M261,207l9,0 0,9 -9,0 0,-9z M270,207l9,0 0,9 -9,0 0,-9z M288,207l9,0 0,9 -9,0 0,-9z M9,216l9,0 0,9 -9,0 0,-9z M36,216l9,0 0,9 -9,0 0,-9z M54,216l9,0 0,9 -9,0 0,-9z M72,216l9,0 0,9 -9,0 0,-9z M90,216l9,0 0,9 -9,0 0,-9z M99,216l9,0 0,9 -9,0 0,-9z M108,216l9,0 0,9 -9,0 0,-9z M135,216l9,0 0,9 -9,0 0,-9z M189,216l9,0 0,9 -9,0 0,-9z M198,216l9,0 0,9 -9,0 0,-9z M207,216l9,0 0,9 -9,0 0,-9z M261,216l9,0 0,9 -9,0 0,-9z M270,216l9,0 0,9 -9,0 0,-9z M279,216l9,0 0,9 -9,0 0,-9z M9,225l9,0 0,9 -9,0 0,-9z M36,225l9,0 0,9 -9,0 0,-9z M54,225l9,0 0,9 -9,0 0,-9z M63,225l9,0 0,9 -9,0 0,-9z M72,225l9,0 0,9 -9,0 0,-9z M81,225l9,0 0,9 -9,0 0,-9z M108,225l9,0 0,9 -9,0 0,-9z M144,225l9,0 0,9 -9,0 0,-9z M162,225l9,0 0,9 -9,0 0,-9z M180,225l9,0 0,9 -9,0 0,-9z M216,225l9,0 0,9 -9,0 0,-9z M225,225l9,0 0,9 -9,0 0,-9z M234,225l9,0 0,9 -9,0 0,-9z M243,225l9,0 0,9 -9,0 0,-9z M252,225l9,0 0,9 -9,0 0,-9z M261,225l9,0 0,9 -9,0 0,-9z M270,225l9,0 0,9 -9,0 0,-9z M297,225l9,0 0,9 -9,0 0,-9z M81,234l9,0 0,9 -9,0 0,-9z M90,234l9,0 0,9 -9,0 0,-9z M99,234l9,0 0,9 -9,0 0,-9z M117,234l9,0 0,9 -9,0 0,-9z M126,234l9,0 0,9 -9,0 0,-9z M135,234l9,0 0,9 -9,0 0,-9z M153,234l9,0 0,9 -9,0 0,-9z M189,234l9,0 0,9 -9,0 0,-9z M225,234l9,0 0,9 -9,0 0,-9z M261,234l9,0 0,9 -9,0 0,-9z M270,234l9,0 0,9 -9,0 0,-9z M279,234l9,0 0,9 -9,0 0,-9z M297,234l9,0 0,9 -9,0 0,-9z M9,243l9,0 0,9 -9,0 0,-9z M18,243l9,0 0,9 -9,0 0,-9z M27,243l9,0 0,9 -9,0 0,-9z M36,243l9,0 0,9 -9,0 0,-9z M45,243l9,0 0,9 -9,0 0,-9z M54,243l9,0 0,9 -9,0 0,-9z M63,243l9,0 0,9 -9,0 0,-9z M81,243l9,0 0,9 -9,0 0,-9z M90,243l9,0 0,9 -9,0 0,-9z M126,243l9,0 0,9 -9,0 0,-9z M135,243l9,0 0,9 -9,0 0,-9z M144,243l9,0 0,9 -9,0 0,-9z M189,243l9,0 0,9 -9,0 0,-9z M207,243l9,0 0,9 -9,0 0,-9z M216,243l9,0 0,9 -9,0 0,-9z M225,243l9,0 0,9 -9,0 0,-9z M243,243l9,0 0,9 -9,0 0,-9z M261,243l9,0 0,9 -9,0 0,-9z M270,243l9,0 0,9 -9,0 0,-9z M288,243l9,0 0,9 -9,0 0,-9z M9,252l9,0 0,9 -9,0 0,-9z M63,252l9,0 0,9 -9,0 0,-9z M90,252l9,0 0,9 -9,0 0,-9z M117,252l9,0 0,9 -9,0 0,-9z M126,252l9,0 0,9 -9,0 0,-9z M144,252l9,0 0,9 -9,0 0,-9z M180,252l9,0 0,9 -9,0 0,-9z M189,252l9,0 0,9 -9,0 0,-9z M198,252l9,0 0,9 -9,0 0,-9z M216,252l9,0 0,9 -9,0 0,-9z M225,252l9,0 0,9 -9,0 0,-9z M261,252l9,0 0,9 -9,0 0,-9z M270,252l9,0 0,9 -9,0 0,-9z M279,252l9,0 0,9 -9,0 0,-9z M288,252l9,0 0,9 -9,0 0,-9z M9,261l9,0 0,9 -9,0 0,-9z M27,261l9,0 0,9 -9,0 0,-9z M36,261l9,0 0,9 -9,0 0,-9z M45,261l9,0 0,9 -9,0 0,-9z M63,261l9,0 0,9 -9,0 0,-9z M81,261l9,0 0,9 -9,0 0,-9z M99,261l9,0 0,9 -9,0 0,-9z M117,261l9,0 0,9 -9,0 0,-9z M135,261l9,0 0,9 -9,0 0,-9z M153,261l9,0 0,9 -9,0 0,-9z M162,261l9,0 0,9 -9,0 0,-9z M171,261l9,0 0,9 -9,0 0,-9z M180,261l9,0 0,9 -9,0 0,-9z M207,261l9,0 0,9 -9,0 0,-9z M225,261l9,0 0,9 -9,0 0,-9z M234,261l9,0 0,9 -9,0 0,-9z M243,261l9,0 0,9 -9,0 0,-9z M252,261l9,0 0,9 -9,0 0,-9z M261,261l9,0 0,9 -9,0 0,-9z M270,261l9,0 0,9 -9,0 0,-9z M297,261l9,0 0,9 -9,0 0,-9z M9,270l9,0 0,9 -9,0 0,-9z M27,270l9,0 0,9 -9,0 0,-9z M36,270l9,0 0,9 -9,0 0,-9z M45,270l9,0 0,9 -9,0 0,-9z M63,270l9,0 0,9 -9,0 0,-9z M81,270l9,0 0,9 -9,0 0,-9z M90,270l9,0 0,9 -9,0 0,-9z M162,270l9,0 0,9 -9,0 0,-9z M180,270l9,0 0,9 -9,0 0,-9z M198,270l9,0 0,9 -9,0 0,-9z M216,270l9,0 0,9 -9,0 0,-9z M234,270l9,0 0,9 -9,0 0,-9z M252,270l9,0 0,9 -9,0 0,-9z M261,270l9,0 0,9 -9,0 0,-9z M270,270l9,0 0,9 -9,0 0,-9z M279,270l9,0 0,9 -9,0 0,-9z M288,270l9,0 0,9 -9,0 0,-9z M297,270l9,0 0,9 -9,0 0,-9z M9,279l9,0 0,9 -9,0 0,-9z M27,279l9,0 0,9 -9,0 0,-9z M36,279l9,0 0,9 -9,0 0,-9z M45,279l9,0 0,9 -9,0 0,-9z M63,279l9,0 0,9 -9,0 0,-9z M81,279l9,0 0,9 -9,0 0,-9z M108,279l9,0 0,9 -9,0 0,-9z M117,279l9,0 0,9 -9,0 0,-9z M144,279l9,0 0,9 -9,0 0,-9z M171,279l9,0 0,9 -9,0 0,-9z M225,279l9,0 0,9 -9,0 0,-9z M243,279l9,0 0,9 -9,0 0,-9z M252,279l9,0 0,9 -9,0 0,-9z M270,279l9,0 0,9 -9,0 0,-9z M9,288l9,0 0,9 -9,0 0,-9z M63,288l9,0 0,9 -9,0 0,-9z M81,288l9,0 0,9 -9,0 0,-9z M99,288l9,0 0,9 -9,0 0,-9z M108,288l9,0 0,9 -9,0 0,-9z M135,288l9,0 0,9 -9,0 0,-9z M180,288l9,0 0,9 -9,0 0,-9z M198,288l9,0 0,9 -9,0 0,-9z M216,288l9,0 0,9 -9,0 0,-9z M234,288l9,0 0,9 -9,0 0,-9z M243,288l9,0 0,9 -9,0 0,-9z M261,288l9,0 0,9 -9,0 0,-9z M270,288l9,0 0,9 -9,0 0,-9z M279,288l9,0 0,9 -9,0 0,-9z M9,297l9,0 0,9 -9,0 0,-9z M18,297l9,0 0,9 -9,0 0,-9z M27,297l9,0 0,9 -9,0 0,-9z M36,297l9,0 0,9 -9,0 0,-9z M45,297l9,0 0,9 -9,0 0,-9z M54,297l9,0 0,9 -9,0 0,-9z M63,297l9,0 0,9 -9,0 0,-9z M81,297l9,0 0,9 -9,0 0,-9z M108,297l9,0 0,9 -9,0 0,-9z M144,297l9,0 0,9 -9,0 0,-9z M153,297l9,0 0,9 -9,0 0,-9z M189,297l9,0 0,9 -9,0 0,-9z M207,297l9,0 0,9 -9,0 0,-9z M216,297l9,0 0,9 -9,0 0,-9z M225,297l9,0 0,9 -9,0 0,-9z M234,297l9,0 0,9 -9,0 0,-9z M243,297l9,0 0,9 -9,0 0,-9z M270,297l9,0 0,9 -9,0 0,-9z M288,297l9,0 0,9 -9,0 0,-9z " stroke="transparent" fill="#000000"/></svg>