<svg version="1.1" xmlns="http://www.w3.org/2000/svg" width="300px" height="300px" viewBox="0 0 315 315"  preserveAspectRatio="xMinYMin meet"><rect width="100%" height="100%" fill="#ffffff" cx="0" cy="0"/><path d="M9,9l9,0 0,9 -9,0 0,-9z M18,9l9,0 0,9 -9,0 0,-9z M27,9l9,0 0,9 -9,0 0,-9z M36,9l9,0 0,9 -9,0 0,-9z M45,9l9,0 0,9 -9,0 0,-9z M54,9l9,0 0,9 -9,0 0,-9z M63,9l9,0 0,9 -9,0 0,-9z M81,9l9,0 0,9 -9,0 0,-9z M99,9l9,0 0,9 -9,0 0,-9z M117,9l9,0 0,9 -9,0 0,-9z M126,9l9,0 0,9 -9,0 0,-9z M135,9l9,0 0,9 -9,0 0,-9z M144,9l9,0 0,9 -9,0 0,-9z M180,9l9,0 0,9 -9,0 0,-9z M189,9l9,0 0,9 -9,0 0,-9z M198,9l9,0 0,9 -9,0 0,-9z M216,9l9,0 0,9 -9,0 0,-9z M243,9l9,0 0,9 -9,0 0,-9z M252,9l9,0 0,9 -9,0 0,-9z M261,9l9,0 0,9 -9,0 0,-9z M270,9l9,0 0,9 -9,0 0,-9z M279,9l9,0 0,9 -9,0 0,-9z M288,9l9,0 0,9 -9,0 0,-9z M297,9l9,0 0,9 -9,0 0,-9z M9,18l9,0 0,9 -9,0 0,-9z M63,18l9,0 0,9 -9,0 0,-9z M90,18l9,0 0,9 -9,0 0,-9z M99,18l9,0 0,9 -9,0 0,-9z M108,18l9,0 0,9 -9,0 0,-9z M117,18l9,0 0,9 -9,0 0,-9z M126,18l9,0 0,9 -9,0 0,-9z M153,18l9,0 0,9 -9,0 0,-9z M171,18l9,0 0,9 -9,0 0,-9z M189,18l9,0 0,9 -9,0 0,-9z M207,18l9,0 0,9 -9,0 0,-9z M216,18l9,0 0,9 -9,0 0,-9z M243,18l9,0 0,9 -9,0 0,-9z M297,18l9,0 0,9 -9,0 0,-9z M9,27l9,0 0,9 -9,0 0,-9z M27,27l9,0 0,9 -9,0 0,-9z M36,27l9,0 0,9 -9,0 0,-9z M45,27l9,0 0,9 -9,0 0,-9z M63,27l9,0 0,9 -9,0 0,-9z M81,27l9,0 0,9 -9,0 0,-9z M90,27l9,0 0,9 -9,0 0,-9z M99,27l9,0 0,9 -9,0 0,-9z M153,27l9,0 0,9 -9,0 0,-9z M171,27l9,0 0,9 -9,0 0,-9z M180,27l9,0 0,9 -9,0 0,-9z M225,27l9,0 0,9 -9,0 0,-9z M243,27l9,0 0,9 -9,0 0,-9z M261,27l9,0 0,9 -9,0 0,-9z M270,27l9,0 0,9 -9,0 0,-9z M279,27l9,0 0,9 -9,0 0,-9z M297,27l9,0 0,9 -9,0 0,-9z M9,36l9,0 0,9 -9,0 0,-9z M27,36l9,0 0,9 -9,0 0,-9z M36,36l9,0 0,9 -9,0 0,-9z M45,36l9,0 0,9 -9,0 0,-9z M63,36l9,0 0,9 -9,0 0,-9z M81,36l9,0 0,9 -9,0 0,-9z M90,36l9,0 0,9 -9,0 0,-9z M99,36l9,0 0,9 -9,0 0,-9z M117,36l9,0 0,9 -9,0 0,-9z M135,36l9,0 0,9 -9,0 0,-9z M144,36l9,0 0,9 -9,0 0,-9z M180,36l9,0 0,9 -9,0 0,-9z M207,36l9,0 0,9 -9,0 0,-9z M243,36l9,0 0,9 -9,0 0,-9z M261,36l9,0 0,9 -9,0 0,-9z M270,36l9,0 0,9 -9,0 0,-9z M279,36l9,0 0,9 -9,0 0,-9z M297,36l9,0 0,9 -9,0 0,-9z M9,45l9,0 0,9 -9,0 0,-9z M27,45l9,0 0,9 -9,0 0,-9z M36,45l9,0 0,9 -9,0 0,-9z M45,45l9,0 0,9 -9,0 0,-9z M63,45l9,0 0,9 -9,0 0,-9z M81,45l9,0 0,9 -9,0 0,-9z M108,45l9,0 0,9 -9,0 0,-9z M117,45l9,0 0,9 -9,0 0,-9z M135,45l9,0 0,9 -9,0 0,-9z M153,45l9,0 0,9 -9,0 0,-9z M180,45l9,0 0,9 -9,0 0,-9z M207,45l9,0 0,9 -9,0 0,-9z M225,45l9,0 0,9 -9,0 0,-9z M243,45l9,0 0,9 -9,0 0,-9z M261,45l9,0 0,9 -9,0 0,-9z M270,45l9,0 0,9 -9,0 0,-9z M279,45l9,0 0,9 -9,0 0,-9z M297,45l9,0 0,9 -9,0 0,-9z M9,54l9,0 0,9 -9,0 0,-9z M63,54l9,0 0,9 -9,0 0,-9z M99,54l9,0 0,9 -9,0 0,-9z M108,54l9,0 0,9 -9,0 0,-9z M126,54l9,0 0,9 -9,0 0,-9z M144,54l9,0 0,9 -9,0 0,-9z M153,54l9,0 0,9 -9,0 0,-9z M180,54l9,0 0,9 -9,0 0,-9z M198,54l9,0 0,9 -9,0 0,-9z M207,54l9,0 0,9 -9,0 0,-9z M225,54l9,0 0,9 -9,0 0,-9z M243,54l9,0 0,9 -9,0 0,-9z M297,54l9,0 0,9 -9,0 0,-9z M9,63l9,0 0,9 -9,0 0,-9z M18,63l9,0 0,9 -9,0 0,-9z M27,63l9,0 0,9 -9,0 0,-9z M36,63l9,0 0,9 -9,0 0,-9z M45,63l9,0 0,9 -9,0 0,-9z M54,63l9,0 0,9 -9,0 0,-9z M63,63l9,0 0,9 -9,0 0,-9z M81,63l9,0 0,9 -9,0 0,-9z M99,63l9,0 0,9 -9,0 0,-9z M117,63l9,0 0,9 -9,0 0,-9z M135,63l9,0 0,9 -9,0 0,-9z M153,63l9,0 0,9 -9,0 0,-9z M171,63l9,0 0,9 -9,0 0,-9z M189,63l9,0 0,9 -9,0 0,-9z M207,63l9,0 0,9 -9,0 0,-9z M225,63l9,0 0,9 -9,0 0,-9z M243,63l9,0 0,9 -9,0 0,-9z M252,63l9,0 0,9 -9,0 0,-9z M261,63l9,0 0,9 -9,0 0,-9z M270,63l9,0 0,9 -9,0 0,-9z M279,63l9,0 0,9 -9,0 0,-9z M288,63l9,0 0,9 -9,0 0,-9z M297,63l9,0 0,9 -9,0 0,-9z M99,72l9,0 0,9 -9,0 0,-9z M117,72l9,0 0,9 -9,0 0,-9z M144,72l9,0 0,9 -9,0 0,-9z M153,72l9,0 0,9 -9,0 0,-9z M162,72l9,0 0,9 -9,0 0,-9z M207,72l9,0 0,9 -9,0 0,-9z M225,72l9,0 0,9 -9,0 0,-9z M9,81l9,0 0,9 -9,0 0,-9z M18,81l9,0 0,9 -9,0 0,-9z M27,81l9,0 0,9 -9,0 0,-9z M36,81l9,0 0,9 -9,0 0,-9z M63,81l9,0 0,9 -9,0 0,-9z M81,81l9,0 0,9 -9,0 0,-9z M99,81l9,0 0,9 -9,0 0,-9z M108,81l9,0 0,9 -9,0 0,-9z M117,81l9,0 0,9 -9,0 0,-9z M126,81l9,0 0,9 -9,0 0,-9z M144,81l9,0 0,9 -9,0 0,-9z M153,81l9,0 0,9 -9,0 0,-9z M162,81l9,0 0,9 -9,0 0,-9z M198,81l9,0 0,9 -9,0 0,-9z M207,81l9,0 0,9 -9,0 0,-9z M216,81l9,0 0,9 -9,0 0,-9z M234,81l9,0 0,9 -9,0 0,-9z M261,81l9,0 0,9 -9,0 0,-9z M270,81l9,0 0,9 -9,0 0,-9z M279,81l9,0 0,9 -9,0 0,-9z M297,81l9,0 0,9 -9,0 0,-9z M36,90l9,0 0,9 -9,0 0,-9z M54,90l9,0 0,9 -9,0 0,-9z M99,90l9,0 0,9 -9,0 0,-9z M117,90l9,0 0,9 -9,0 0,-9z M126,90l9,0 0,9 -9,0 0,-9z M135,90l9,0 0,9 -9,0 0,-9z M144,90l9,0 0,9 -9,0 0,-9z M180,90l9,0 0,9 -9,0 0,-9z M189,90l9,0 0,9 -9,0 0,-9z M216,90l9,0 0,9 -9,0 0,-9z M234,90l9,0 0,9 -9,0 0,-9z M243,90l9,0 0,9 -9,0 0,-9z M279,90l9,0 0,9 -9,0 0,-9z M288,90l9,0 0,9 -9,0 0,-9z M297,90l9,0 0,9 -9,0 0,-9z M27,99l9,0 0,9 -9,0 0,-9z M45,99l9,0 0,9 -9,0 0,-9z M54,99l9,0 0,9 -9,0 0,-9z M63,99l9,0 0,9 -9,0 0,-9z M90,99l9,0 0,9 -9,0 0,-9z M99,99l9,0 0,9 -9,0 0,-9z M108,99l9,0 0,9 -9,0 0,-9z M117,99l9,0 0,9 -9,0 0,-9z M126,99l9,0 0,9 -9,0 0,-9z M153,99l9,0 0,9 -9,0 0,-9z M171,99l9,0 0,9 -9,0 0,-9z M198,99l9,0 0,9 -9,0 0,-9z M207,99l9,0 0,9 -9,0 0,-9z M216,99l9,0 0,9 -9,0 0,-9z M225,99l9,0 0,9 -9,0 0,-9z M243,99l9,0 0,9 -9,0 0,-9z M261,99l9,0 0,9 -9,0 0,-9z M279,99l9,0 0,9 -9,0 0,-9z M288,99l9,0 0,9 -9,0 0,-9z M297,99l9,0 0,9 -9,0 0,-9z M36,108l9,0 0,9 -9,0 0,-9z M54,108l9,0 0,9 -9,0 0,-9z M72,108l9,0 0,9 -9,0 0,-9z M81,108l9,0 0,9 -9,0 0,-9z M90,108l9,0 0,9 -9,0 0,-9z M99,108l9,0 0,9 -9,0 0,-9z M180,108l9,0 0,9 -9,0 0,-9z M189,108l9,0 0,9 -9,0 0,-9z M207,108l9,0 0,9 -9,0 0,-9z M216,108l9,0 0,9 -9,0 0,-9z M261,108l9,0 0,9 -9,0 0,-9z M288,108l9,0 0,9 -9,0 0,-9z M9,117l9,0 0,9 -9,0 0,-9z M18,117l9,0 0,9 -9,0 0,-9z M36,117l9,0 0,9 -9,0 0,-9z M63,117l9,0 0,9 -9,0 0,-9z M90,117l9,0 0,9 -9,0 0,-9z M99,117l9,0 0,9 -9,0 0,-9z M117,117l9,0 0,9 -9,0 0,-9z M135,117l9,0 0,9 -9,0 0,-9z M144,117l9,0 0,9 -9,0 0,-9z M153,117l9,0 0,9 -9,0 0,-9z M162,117l9,0 0,9 -9,0 0,-9z M189,117l9,0 0,9 -9,0 0,-9z M207,117l9,0 0,9 -9,0 0,-9z M225,117l9,0 0,9 -9,0 0,-9z M234,117l9,0 0,9 -9,0 0,-9z M261,117l9,0 0,9 -9,0 0,-9z M270,117l9,0 0,9 -9,0 0,-9z M9,126l9,0 0,9 -9,0 0,-9z M18,126l9,0 0,9 -9,0 0,-9z M45,126l9,0 0,9 -9,0 0,-9z M54,126l9,0 0,9 -9,0 0,-9z M72,126l9,0 0,9 -9,0 0,-9z M81,126l9,0 0,9 -9,0 0,-9z M90,126l9,0 0,9 -9,0 0,-9z M108,126l9,0 0,9 -9,0 0,-9z M117,126l9,0 0,9 -9,0 0,-9z M135,126l9,0 0,9 -9,0 0,-9z M153,126l9,0 0,9 -9,0 0,-9z M171,126l9,0 0,9 -9,0 0,-9z M225,126l9,0 0,9 -9,0 0,-9z M234,126l9,0 0,9 -9,0 0,-9z M252,126l9,0 0,9 -9,0 0,-9z M270,126l9,0 0,9 -9,0 0,-9z M279,126l9,0 0,9 -9,0 0,-9z M288,126l9,0 0,9 -9,0 0,-9z M27,135l9,0 0,9 -9,0 0,-9z M36,135l9,0 0,9 -9,0 0,-9z M45,135l9,0 0,9 -9,0 0,-9z M54,135l9,0 0,9 -9,0 0,-9z M63,135l9,0 0,9 -9,0 0,-9z M81,135l9,0 0,9 -9,0 0,-9z M90,135l9,0 0,9 -9,0 0,-9z M99,135l9,0 0,9 -9,0 0,-9z M108,135l9,0 0,9 -9,0 0,-9z M126,135l9,0 0,9 -9,0 0,-9z M180,135l9,0 0,9 -9,0 0,-9z M198,135l9,0 0,9 -9,0 0,-9z M207,135l9,0 0,9 -9,0 0,-9z M225,135l9,0 0,9 -9,0 0,-9z M252,135l9,0 0,9 -9,0 0,-9z M261,135l9,0 0,9 -9,0 0,-9z M279,135l9,0 0,9 -9,0 0,-9z M45,144l9,0 0,9 -9,0 0,-9z M54,144l9,0 0,9 -9,0 0,-9z M72,144l9,0 0,9 -9,0 0,-9z M81,144l9,0 0,9 -9,0 0,-9z M90,144l9,0 0,9 -9,0 0,-9z M108,144l9,0 0,9 -9,0 0,-9z M135,144l9,0 0,9 -9,0 0,-9z M144,144l9,0 0,9 -9,0 0,-9z M153,144l9,0 0,9 -9,0 0,-9z M180,144l9,0 0,9 -9,0 0,-9z M189,144l9,0 0,9 -9,0 0,-9z M198,144l9,0 0,9 -9,0 0,-9z M207,144l9,0 0,9 -9,0 0,-9z M216,144l9,0 0,9 -9,0 0,-9z M225,144l9,0 0,9 -9,0 0,-9z M234,144l9,0 0,9 -9,0 0,-9z M252,144l9,0 0,9 -9,0 0,-9z M279,144l9,0 0,9 -9,0 0,-9z M27,153l9,0 0,9 -9,0 0,-9z M63,153l9,0 0,9 -9,0 0,-9z M117,153l9,0 0,9 -9,0 0,-9z M135,153l9,0 0,9 -9,0 0,-9z M171,153l9,0 0,9 -9,0 0,-9z M198,153l9,0 0,9 -9,0 0,-9z M207,153l9,0 0,9 -9,0 0,-9z M216,153l9,0 0,9 -9,0 0,-9z M225,153l9,0 0,9 -9,0 0,-9z M234,153l9,0 0,9 -9,0 0,-9z M243,153l9,0 0,9 -9,0 0,-9z M261,153l9,0 0,9 -9,0 0,-9z M270,153l9,0 0,9 -9,0 0,-9z M279,153l9,0 0,9 -9,0 0,-9z M288,153l9,0 0,9 -9,0 0,-9z M297,153l9,0 0,9 -9,0 0,-9z M27,162l9,0 0,9 -9,0 0,-9z M36,162l9,0 0,9 -9,0 0,-9z M45,162l9,0 0,9 -9,0 0,-9z M72,162l9,0 0,9 -9,0 0,-9z M99,162l9,0 0,9 -9,0 0,-9z M135,162l9,0 0,9 -9,0 0,-9z M162,162l9,0 0,9 -9,0 0,-9z M171,162l9,0 0,9 -9,0 0,-9z M180,162l9,0 0,9 -9,0 0,-9z M189,162l9,0 0,9 -9,0 0,-9z M198,162l9,0 0,9 -9,0 0,-9z M207,162l9,0 0,9 -9,0 0,-9z M216,162l9,0 0,9 -9,0 0,-9z M225,162l9,0 0,9 -9,0 0,-9z M234,162l9,0 0,9 -9,0 0,-9z M243,162l9,0 0,9 -9,0 0,-9z M252,162l9,0 0,9 -9,0 0,-9z M261,162l9,0 0,9 -9,0 0,-9z M270,162l9,0 0,9 -9,0 0,-9z M279,162l9,0 0,9 -9,0 0,-9z M297,162l9,0 0,9 -9,0 0,-9z M9,171l9,0 0,9 -9,0 0,-9z M27,171l9,0 0,9 -9,0 0,-9z M63,171l9,0 0,9 -9,0 0,-9z M99,171l9,0 0,9 -9,0 0,-9z M126,171l9,0 0,9 -9,0 0,-9z M135,171l9,0 0,9 -9,0 0,-9z M144,171l9,0 0,9 -9,0 0,-9z M162,171l9,0 0,9 -9,0 0,-9z M171,171l9,0 0,9 -9,0 0,-9z M189,171l9,0 0,9 -9,0 0,-9z M207,171l9,0 0,9 -9,0 0,-9z M234,171l9,0 0,9 -9,0 0,-9z M252,171l9,0 0,9 -9,0 0,-9z M270,171l9,0 0,9 -9,0 0,-9z M288,171l9,0 0,9 -9,0 0,-9z M18,180l9,0 0,9 -9,0 0,-9z M27,180l9,0 0,9 -9,0 0,-9z M36,180l9,0 0,9 -9,0 0,-9z M72,180l9,0 0,9 -9,0 0,-9z M90,180l9,0 0,9 -9,0 0,-9z M108,180l9,0 0,9 -9,0 0,-9z M126,180l9,0 0,9 -9,0 0,-9z M135,180l9,0 0,9 -9,0 0,-9z M153,180l9,0 0,9 -9,0 0,-9z M162,180l9,0 0,9 -9,0 0,-9z M189,180l9,0 0,9 -9,0 0,-9z M207,180l9,0 0,9 -9,0 0,-9z M216,180l9,0 0,9 -9,0 0,-9z M234,180l9,0 0,9 -9,0 0,-9z M243,180l9,0 0,9 -9,0 0,-9z M270,180l9,0 0,9 -9,0 0,-9z M297,180l9,0 0,9 -9,0 0,-9z M36,189l9,0 0,9 -9,0 0,-9z M63,189l9,0 0,9 -9,0 0,-9z M126,189l9,0 0,9 -9,0 0,-9z M135,189l9,0 0,9 -9,0 0,-9z M153,189l9,0 0,9 -9,0 0,-9z M171,189l9,0 0,9 -9,0 0,-9z M180,189l9,0 0,9 -9,0 0,-9z M198,189l9,0 0,9 -9,0 0,-9z M252,189l9,0 0,9 -9,0 0,-9z M279,189l9,0 0,9 -9,0 0,-9z M9,198l9,0 0,9 -9,0 0,-9z M18,198l9,0 0,9 -9,0 0,-9z M36,198l9,0 0,9 -9,0 0,-9z M54,198l9,0 0,9 -9,0 0,-9z M81,198l9,0 0,9 -9,0 0,-9z M90,198l9,0 0,9 -9,0 0,-9z M99,198l9,0 0,9 -9,0 0,-9z M153,198l9,0 0,9 -9,0 0,-9z M162,198l9,0 0,9 -9,0 0,-9z M171,198l9,0 0,9 -9,0 0,-9z M189,198l9,0 0,9 -9,0 0,-9z M216,198l9,0 0,9 -9,0 0,-9z M243,198l9,0 0,9 -9,0 0,-9z M270,198l9,0 0,9 -9,0 0,-9z M288,198l9,0 0,9 -9,0 0,-9z M297,198l9,0 0,9 -9,0 0,-9z M45,207l9,0 0,9 -9,0 0,-9z M54,207l9,0 0,9 -9,0 0,-9z M63,207l9,0 0,9 -9,0 0,-9z M72,207l9,0 0,9 -9,0 0,-9z M99,207l9,0 0,9 -9,0 0,-9z M135,207l9,0 0,9 -9,0 0,-9z M153,207l9,0 0,9 -9,0 0,-9z M189,207l9,0 0,9 -9,0 0,-9z M207,207l9,0 0,9 -9,0 0,-9z M216,207l9,0 0,9 -9,0 0,-9z M225,207l9,0 0,9 -9,0 0,-9z M234,207l9,0 0,9 -9,0 0,-9z M243,207l9,0 0,9 -9,0 0,-9z M261,207l9,0 0,9 -9,0 0,-9z M279,207l9,0 0,9 -9,0 0,-9z M288,207l9,0 0,9 -9,0 0,-9z M297,207l9,0 0,9 -9,0 0,-9z M18,216l9,0 0,9 -9,0 0,-9z M27,216l9,0 0,9 -9,0 0,-9z M36,216l9,0 0,9 -9,0 0,-9z M54,216l9,0 0,9 -9,0 0,-9z M90,216l9,0 0,9 -9,0 0,-9z M108,216l9,0 0,9 -9,0 0,-9z M117,216l9,0 0,9 -9,0 0,-9z M126,216l9,0 0,9 -9,0 0,-9z M135,216l9,0 0,9 -9,0 0,-9z M171,216l9,0 0,9 -9,0 0,-9z M180,216l9,0 0,9 -9,0 0,-9z M225,216l9,0 0,9 -9,0 0,-9z M234,216l9,0 0,9 -9,0 0,-9z M252,216l9,0 0,9 -9,0 0,-9z M270,216l9,0 0,9 -9,0 0,-9z M288,216l9,0 0,9 -9,0 0,-9z M9,225l9,0 0,9 -9,0 0,-9z M27,225l9,0 0,9 -9,0 0,-9z M45,225l9,0 0,9 -9,0 0,-9z M54,225l9,0 0,9 -9,0 0,-9z M63,225l9,0 0,9 -9,0 0,-9z M72,225l9,0 0,9 -9,0 0,-9z M81,225l9,0 0,9 -9,0 0,-9z M90,225l9,0 0,9 -9,0 0,-9z M108,225l9,0 0,9 -9,0 0,-9z M144,225l9,0 0,9 -9,0 0,-9z M162,225l9,0 0,9 -9,0 0,-9z M171,225l9,0 0,9 -9,0 0,-9z M189,225l9,0 0,9 -9,0 0,-9z M216,225l9,0 0,9 -9,0 0,-9z M225,225l9,0 0,9 -9,0 0,-9z M234,225l9,0 0,9 -9,0 0,-9z M243,225l9,0 0,9 -9,0 0,-9z M252,225l9,0 0,9 -9,0 0,-9z M261,225l9,0 0,9 -9,0 0,-9z M270,225l9,0 0,9 -9,0 0,-9z M297,225l9,0 0,9 -9,0 0,-9z M81,234l9,0 0,9 -9,0 0,-9z M99,234l9,0 0,9 -9,0 0,-9z M108,234l9,0 0,9 -9,0 0,-9z M126,234l9,0 0,9 -9,0 0,-9z M144,234l9,0 0,9 -9,0 0,-9z M153,234l9,0 0,9 -9,0 0,-9z M171,234l9,0 0,9 -9,0 0,-9z M198,234l9,0 0,9 -9,0 0,-9z M216,234l9,0 0,9 -9,0 0,-9z M225,234l9,0 0,9 -9,0 0,-9z M261,234l9,0 0,9 -9,0 0,-9z M9,243l9,0 0,9 -9,0 0,-9z M18,243l9,0 0,9 -9,0 0,-9z M27,243l9,0 0,9 -9,0 0,-9z M36,243l9,0 0,9 -9,0 0,-9z M45,243l9,0 0,9 -9,0 0,-9z M54,243l9,0 0,9 -9,0 0,-9z M63,243l9,0 0,9 -9,0 0,-9z M90,243l9,0 0,9 -9,0 0,-9z M99,243l9,0 0,9 -9,0 0,-9z M117,243l9,0 0,9 -9,0 0,-9z M135,243l9,0 0,9 -9,0 0,-9z M153,243l9,0 0,9 -9,0 0,-9z M180,243l9,0 0,9 -9,0 0,-9z M189,243l9,0 0,9 -9,0 0,-9z M198,243l9,0 0,9 -9,0 0,-9z M216,243l9,0 0,9 -9,0 0,-9z M225,243l9,0 0,9 -9,0 0,-9z M243,243l9,0 0,9 -9,0 0,-9z M261,243l9,0 0,9 -9,0 0,-9z M270,243l9,0 0,9 -9,0 0,-9z M279,243l9,0 0,9 -9,0 0,-9z M9,252l9,0 0,9 -9,0 0,-9z M63,252l9,0 0,9 -9,0 0,-9z M99,252l9,0 0,9 -9,0 0,-9z M117,252l9,0 0,9 -9,0 0,-9z M126,252l9,0 0,9 -9,0 0,-9z M144,252l9,0 0,9 -9,0 0,-9z M153,252l9,0 0,9 -9,0 0,-9z M180,252l9,0 0,9 -9,0 0,-9z M189,252l9,0 0,9 -9,0 0,-9z M198,252l9,0 0,9 -9,0 0,-9z M216,252l9,0 0,9 -9,0 0,-9z M225,252l9,0 0,9 -9,0 0,-9z M261,252l9,0 0,9 -9,0 0,-9z M270,252l9,0 0,9 -9,0 0,-9z M279,252l9,0 0,9 -9,0 0,-9z M288,252l9,0 0,9 -9,0 0,-9z M9,261l9,0 0,9 -9,0 0,-9z M27,261l9,0 0,9 -9,0 0,-9z M36,261l9,0 0,9 -9,0 0,-9z M45,261l9,0 0,9 -9,0 0,-9z M63,261l9,0 0,9 -9,0 0,-9z M90,261l9,0 0,9 -9,0 0,-9z M108,261l9,0 0,9 -9,0 0,-9z M162,261l9,0 0,9 -9,0 0,-9z M171,261l9,0 0,9 -9,0 0,-9z M180,261l9,0 0,9 -9,0 0,-9z M189,261l9,0 0,9 -9,0 0,-9z M198,261l9,0 0,9 -9,0 0,-9z M207,261l9,0 0,9 -9,0 0,-9z M216,261l9,0 0,9 -9,0 0,-9z M225,261l9,0 0,9 -9,0 0,-9z M234,261l9,0 0,9 -9,0 0,-9z M243,261l9,0 0,9 -9,0 0,-9z M252,261l9,0 0,9 -9,0 0,-9z M261,261l9,0 0,9 -9,0 0,-9z M279,261l9,0 0,9 -9,0 0,-9z M9,270l9,0 0,9 -9,0 0,-9z M27,270l9,0 0,9 -9,0 0,-9z M36,270l9,0 0,9 -9,0 0,-9z M45,270l9,0 0,9 -9,0 0,-9z M63,270l9,0 0,9 -9,0 0,-9z M81,270l9,0 0,9 -9,0 0,-9z M99,270l9,0 0,9 -9,0 0,-9z M117,270l9,0 0,9 -9,0 0,-9z M126,270l9,0 0,9 -9,0 0,-9z M144,270l9,0 0,9 -9,0 0,-9z M207,270l9,0 0,9 -9,0 0,-9z M216,270l9,0 0,9 -9,0 0,-9z M225,270l9,0 0,9 -9,0 0,-9z M270,270l9,0 0,9 -9,0 0,-9z M297,270l9,0 0,9 -9,0 0,-9z M9,279l9,0 0,9 -9,0 0,-9z M27,279l9,0 0,9 -9,0 0,-9z M36,279l9,0 0,9 -9,0 0,-9z M45,279l9,0 0,9 -9,0 0,-9z M63,279l9,0 0,9 -9,0 0,-9z M81,279l9,0 0,9 -9,0 0,-9z M90,279l9,0 0,9 -9,0 0,-9z M108,279l9,0 0,9 -9,0 0,-9z M117,279l9,0 0,9 -9,0 0,-9z M144,279l9,0 0,9 -9,0 0,-9z M162,279l9,0 0,9 -9,0 0,-9z M171,279l9,0 0,9 -9,0 0,-9z M225,279l9,0 0,9 -9,0 0,-9z M243,279l9,0 0,9 -9,0 0,-9z M252,279l9,0 0,9 -9,0 0,-9z M270,279l9,0 0,9 -9,0 0,-9z M9,288l9,0 0,9 -9,0 0,-9z M63,288l9,0 0,9 -9,0 0,-9z M81,288l9,0 0,9 -9,0 0,-9z M90,288l9,0 0,9 -9,0 0,-9z M99,288l9,0 0,9 -9,0 0,-9z M117,288l9,0 0,9 -9,0 0,-9z M162,288l9,0 0,9 -9,0 0,-9z M171,288l9,0 0,9 -9,0 0,-9z M180,288l9,0 0,9 -9,0 0,-9z M189,288l9,0 0,9 -9,0 0,-9z M225,288l9,0 0,9 -9,0 0,-9z M234,288l9,0 0,9 -9,0 0,-9z M252,288l9,0 0,9 -9,0 0,-9z M261,288l9,0 0,9 -9,0 0,-9z M297,288l9,0 0,9 -9,0 0,-9z M9,297l9,0 0,9 -9,0 0,-9z M18,297l9,0 0,9 -9,0 0,-9z M27,297l9,0 0,9 -9,0 0,-9z M36,297l9,0 0,9 -9,0 0,-9z M45,297l9,0 0,9 -9,0 0,-9z M54,297l9,0 0,9 -9,0 0,-9z M63,297l9,0 0,9 -9,0 0,-9z M81,297l9,0 0,9 -9,0 0,-9z M90,297l9,0 0,9 -9,0 0,-9z M99,297l9,0 0,9 -9,0 0,-9z M108,297l9,0 0,9 -9,0 0,-9z M117,297l9,0 0,9 -9,0 0,-9z M126,297l9,0 0,9 -9,0 0,-9z M144,297l9,0 0,9 -9,0 0,-9z M153,297l9,0 0,9 -9,0 0,-9z M162,297l9,0 0,9 -9,0 0,-9z M171,297l9,0 0,9 -9,0 0,-9z M180,297l9,0 0,9 -9,0 0,-9z M189,297l9,0 0,9 -9,0 0,-9z M198,297l9,0 0,9 -9,0 0,-9z M216,297l9,0 0,9 -9,0 0,-9z M243,297l9,0 0,9 -9,0 0,-9z M252,297l9,0 0,9 -9,0 0,-9z M261,297l9,0 0,9 -9,0 0,-9z M270,297l9,0 0,9 -9,0 0,-9z M279,297l9,0 0,9 -9,0 0,-9z " stroke="transparent" fill="#000000"/></svg>